<?xml version="1.0" standalone="no"?>
<!DOCTYPE svg PUBLIC "-//W3C//DTD SVG 20010904//EN"
 "http://www.w3.org/TR/2001/REC-SVG-20010904/DTD/svg10.dtd">
<svg version="1.0" xmlns="http://www.w3.org/2000/svg"
 width="1024.000000pt" height="1024.000000pt" viewBox="0 0 1024.000000 1024.000000"
 preserveAspectRatio="xMidYMid meet">
<metadata>
Created by potrace 1.11, written by Peter Selinger 2001-2013
</metadata>
<g transform="translate(0.000000,1024.000000) scale(0.100000,-0.100000)"
fill="#000000" stroke="none">
<path d="M2120 7120 l0 -750 125 0 125 0 0 -2000 0 -2000 2750 0 2750 0 0
2000 0 2000 125 0 125 0 0 750 0 750 -3000 0 -3000 0 0 -750z m5500 0 l0 -250
-2500 0 -2500 0 0 250 0 250 2500 0 2500 0 0 -250z m-250 -2500 l0 -1750
-2250 0 -2250 0 0 1750 0 1750 2250 0 2250 0 0 -1750z"/>
<path d="M4281 5353 c-24 -9 -63 -35 -86 -58 -119 -119 -91 -309 57 -391 l53
-29 815 0 815 0 53 29 c148 82 176 272 57 391 -78 78 -38 75 -929 74 -690 0
-797 -3 -835 -16z"/>
</g>
</svg>
