<?xml version="1.0" encoding="iso-8859-1"?>
<!-- Generator: Adobe Illustrator 19.0.0, SVG Export Plug-In . SVG Version: 6.00 Build 0)  -->
<svg version="1.1" id="Layer_1" xmlns="http://www.w3.org/2000/svg" xmlns:xlink="http://www.w3.org/1999/xlink" x="0px" y="0px"
	 viewBox="0 0 490 490" style="enable-background:new 0 0 490 490;" xml:space="preserve">
<g>
	<g>
		<g>
			<path d="M480,0H10C4.478,0,0,4.478,0,10v45c0,5.523,4.478,10,10,10v415c0,5.523,4.478,10,10,10h35c5.522,0,10-4.477,10-10v-45
				h360v45c0,5.523,4.478,10,10,10h35c5.522,0,10-4.477,10-10V65c5.522,0,10-4.477,10-10V10C490,4.478,485.522,0,480,0z M45,470H30
				v-35h15V470z M235,415H30V65h205V415z M460,470h-15v-35h15V470z M460,415H255V65h205V415z M470,45H20V20h450V45z"/>
			<rect x="290" y="220" width="20" height="40"/>
			<rect x="180" y="220" width="20" height="40"/>
		</g>
	</g>
</g>
<g>
</g>
<g>
</g>
<g>
</g>
<g>
</g>
<g>
</g>
<g>
</g>
<g>
</g>
<g>
</g>
<g>
</g>
<g>
</g>
<g>
</g>
<g>
</g>
<g>
</g>
<g>
</g>
<g>
</g>
</svg>
