<?xml version="1.0" encoding="iso-8859-1"?>
<!-- Generator: Adobe Illustrator 22.1.0, SVG Export Plug-In . SVG Version: 6.00 Build 0)  -->
<svg xmlns="http://www.w3.org/2000/svg" xmlns:xlink="http://www.w3.org/1999/xlink" version="1.1" id="Layer_3" x="0px" y="0px" viewBox="0 0 64 64" style="enable-background:new 0 0 64 64;" xml:space="preserve" width="512" height="512">
<g>
	<path d="M62,27h-3V6c0-0.553-0.447-1-1-1h-6c-0.553,0-1,0.447-1,1v3h-4V2c0-0.553-0.447-1-1-1h-6c-0.553,0-1,0.447-1,1v3h-5   c-0.553,0-1,0.447-1,1v21h-4V14c0-0.553-0.447-1-1-1H8c-0.553,0-1,0.447-1,1v13H2c-0.553,0-1,0.447-1,1v4c0,0.553,0.447,1,1,1h1v25   v4c0,0.553,0.447,1,1,1h4c0.553,0,1-0.447,1-1v-3h46v3c0,0.553,0.447,1,1,1h4c0.553,0,1-0.447,1-1v-4V33h1c0.553,0,1-0.447,1-1v-4   C63,27.447,62.553,27,62,27z M47,27v-6h4v6H47z M41,27v-4h4v4H41z M53,23h4v4h-4V23z M57,7v14h-4v-2h2v-2h-2v-2h2v-2h-2v-2h2V9h-2   V7H57z M51,11v8h-4v-8H51z M41,3h4v7v11h-4V6V3z M39,7v12h-4v-4h2v-2h-2v-2h2V9h-2V7H39z M35,21h4v6h-4V21z M27,15v6.586   l-4.293-4.293c-0.391-0.391-1.023-0.391-1.414,0L18,20.586l-3.293-3.293c-0.391-0.391-1.023-0.391-1.414,0L9,21.586V15H27z    M25.586,23h-5.172l-1-1L22,19.414L25.586,23z M17.586,23h-7.172L14,19.414L17.586,23z M9,25h18v2H9V25z M7,61H5v-2h2V61z M57,61   v-2h2v2H57z M59,57H5V33h54V57z M61,31H3v-2h5h20h6h6h6h6h6h3V31z"/>
	<path d="M8,41h22c0.553,0,1-0.447,1-1v-4c0-0.553-0.447-1-1-1H8c-0.553,0-1,0.447-1,1v4C7,40.553,7.447,41,8,41z M9,37h20v2H9V37z"/>
	<path d="M34,41h22c0.553,0,1-0.447,1-1v-4c0-0.553-0.447-1-1-1H34c-0.553,0-1,0.447-1,1v4C33,40.553,33.447,41,34,41z M35,37h20v2   H35V37z"/>
	<path d="M8,55h48c0.553,0,1-0.447,1-1V44c0-0.553-0.447-1-1-1H8c-0.553,0-1,0.447-1,1v10C7,54.553,7.447,55,8,55z M55,53H33v-8h22   V53z M9,45h22v8H9V45z"/>
	<rect x="27" y="47" width="2" height="4"/>
	<rect x="35" y="47" width="2" height="4"/>
</g>
</svg>
