<svg id="graphic" xmlns="http://www.w3.org/2000/svg" viewBox="0 0 500 436.67"><defs><style>.cls-1{fill:#e7f6f6;}.cls-2{fill:#ceeced;}.cls-3{fill:#526470;}</style></defs><title>bg-home</title><g id="cloud_download" data-name="cloud download"><g id="cloud"><path class="cls-1" d="M438,812.18l-.49-.06c-69.9-8.38-116.86-53.76-116.86-112.92,0-59.6,48.12-108.1,107.26-108.1a106.39,106.39,0,0,1,23.19,2.55l-7.47-1.93,5.85-9.73c27.48-45.66,77.4-74,130.29-74,83.32,0,151.64,68.37,152.32,152.38l0,7.34-3.42.51c2.12-.2,4.28-.29,6.44-.29,38.15,0,69.16,31.27,69.16,69.7,0,39.72-32.32,74.56-69.16,74.56Z" transform="translate(-312.5 -500)"/><path class="cls-2" d="M438,812.18l-.49-.06c-69.9-8.38-116.86-53.31-116.86-77,0-59.6,48.12-108.1,107.26-108.1a106.38,106.38,0,0,1,23.19,2.54l-7.47-1.93,5.85-9.73c27.48-45.65,77.4-74,130.29-74,83.32,0,151.64,68.37,152.32,152.38l0,7.34-3.42.51c2.12-.2,4.28-.29,6.44-.29,38.15,0,67.62,31.26,67.62,69.7,0,19.63-30.78,38.6-67.62,38.6Z" transform="translate(-312.5 -500)"/></g><g id="download_arrow" data-name="download arrow"><ellipse class="cls-1" cx="250" cy="336.58" rx="64.29" ry="64.34"/><path class="cls-2" d="M626.79,862.31c0,7.64-28.79,38.6-64.29,38.6s-64.29-28.55-64.29-38.6a64.29,64.29,0,1,1,128.58,0Z" transform="translate(-312.5 -500)"/><path class="cls-3" d="M739.86,654.67c-3.54-85.89-74-154.67-160-154.67a159.92,159.92,0,0,0-138.81,80.82c-72.72,2.33-128.55,64.63-128.55,118.37,0,65.67,52.39,116.38,124.58,120.6,5.2.3,9.42.4,12.74.4a81.33,81.33,0,0,0,10.1-.46A7.16,7.16,0,0,0,458,805.55c-.06,0-6.08.76-20.06-.06-64.39-3.75-111.12-48.46-111.12-106.3,0-57.68,64.81-104.13,118.48-104.13a6,6,0,0,0,.73,0h.07l.62-.09.28-.07.39-.1.29-.11.37-.13.24-.11.39-.19.17-.1.43-.26.09-.07.47-.35,0,0a6.14,6.14,0,0,0,.47-.42l0,0c.15-.15.29-.31.43-.47l.14-.19.27-.36c.13-.2.26-.41.37-.62a145.73,145.73,0,0,1,128.3-77c80.43,0,145.86,66,145.86,147.12a7.15,7.15,0,0,0,7.14,7.15c33.59,0,65.35,33.63,65.35,69.18,0,36.07-29.12,67.71-62.32,67.71H672.77a7.16,7.16,0,0,0,0,14.32h63.12c40.81,0,76.61-38.33,76.61-82C812.5,696.53,778.69,658.79,739.86,654.67Z" transform="translate(-312.5 -500)"/><path class="cls-3" d="M562.5,765.08a71.5,71.5,0,1,0,71.43,71.5A71.54,71.54,0,0,0,562.5,765.08Zm0,128.67a57.18,57.18,0,1,1,57.14-57.17A57.22,57.22,0,0,1,562.5,893.75Z" transform="translate(-312.5 -500)"/><path class="cls-3" d="M476.75,836.45a7.15,7.15,0,1,0-12.14,5,6.84,6.84,0,0,0,5,2.15A7.17,7.17,0,0,0,476.75,836.45Z" transform="translate(-312.5 -500)"/><path class="cls-3" d="M650.82,815a7.73,7.73,0,0,0,2.22-.28,7.22,7.22,0,0,0,4.57-9A100.42,100.42,0,0,0,608,747.4a7.29,7.29,0,0,0-9.64,3.07,7.38,7.38,0,0,0-.42,5.52,7,7,0,0,0,3.57,4.15A86.54,86.54,0,0,1,644,810,7,7,0,0,0,650.82,815Z" transform="translate(-312.5 -500)"/><path class="cls-3" d="M491.82,765.79A99.24,99.24,0,0,0,473.46,791a7.13,7.13,0,0,0,3.08,9.59,6.47,6.47,0,0,0,3.28.79,7.07,7.07,0,0,0,6.36-3.86A85.74,85.74,0,0,1,501.82,776a.15.15,0,0,0,.14-.15A84.39,84.39,0,0,1,536.11,755a7.3,7.3,0,0,0,4.14-3.58,7.18,7.18,0,0,0-8.57-10.09A99.85,99.85,0,0,0,492,765.65C491.89,765.72,491.82,765.72,491.82,765.79Z" transform="translate(-312.5 -500)"/><path class="cls-3" d="M562.25,922.35a7.11,7.11,0,0,0-7.07,7.16,6.65,6.65,0,0,0,2.07,5,7,7,0,0,0,5,2.15,7.17,7.17,0,0,0,7.14-7.16,6.77,6.77,0,0,0-2.07-5.08A7,7,0,0,0,562.25,922.35Z" transform="translate(-312.5 -500)"/><path class="cls-3" d="M648.46,872.38a7.26,7.26,0,0,0-9.57,3.15,86.12,86.12,0,0,1-15.71,21.62,1,1,0,0,1-.28.22,84.61,84.61,0,0,1-34.08,20.83,7.18,7.18,0,0,0-4.64,9,7.06,7.06,0,0,0,6.79,5,8.16,8.16,0,0,0,2.21-.36l.07-.07A99.58,99.58,0,0,0,633,907.53l.22-.14a101.66,101.66,0,0,0,18.43-25.34A7.23,7.23,0,0,0,648.46,872.38Z" transform="translate(-312.5 -500)"/><ellipse class="cls-3" cx="342.82" cy="336.59" rx="7.14" ry="7.16"/><path class="cls-3" d="M523.46,913A85.8,85.8,0,0,1,502,897.37l-.21-.22A85.74,85.74,0,0,1,480.89,863a7.13,7.13,0,1,0-13.57,4.36,100.2,100.2,0,0,0,24.36,39.87l.07.08.07.07a101.83,101.83,0,0,0,25.07,18.32,7.54,7.54,0,0,0,3.29.79,7.06,7.06,0,0,0,6.36-3.94,7.15,7.15,0,0,0-3.08-9.59Z" transform="translate(-312.5 -500)"/><path class="cls-3" d="M567.56,616.51a7.14,7.14,0,0,0-10.1,0l-42.87,42.91a7.15,7.15,0,1,0,10.1,10.13l30.67-30.7v104.8a7.16,7.16,0,1,0,14.32,0,6.12,6.12,0,0,0,0-.74V638.84l30.67,30.71a7.15,7.15,0,0,0,10.1-10.13Z" transform="translate(-312.5 -500)"/></g></g></svg>