<svg id="graphic" xmlns="http://www.w3.org/2000/svg" viewBox="0 0 78.13 100"><defs><style>.cls-1{fill:#efefef;}.cls-2{fill:#878787;}.cls-3{fill:#82d2f4;}.cls-4{fill:#444244;}</style></defs><title>instructions-washer</title><g id="graphic-2" data-name="graphic"><rect class="cls-1" x="2.36" y="1.99" width="73.75" height="96.04"/><path class="cls-1" d="M237,50H163.3a2,2,0,0,0-2,2V148a2,2,0,0,0,2,2H237a2,2,0,0,0,2-2V52A2,2,0,0,0,237,50Zm-71.71,4H235v92.08h-69.7Z" transform="translate(-160.94 -50)"/><ellipse class="cls-2" cx="39.42" cy="58.63" rx="29.51" ry="28.94"/><ellipse class="cls-1" cx="39.42" cy="58.63" rx="20.36" ry="19.96"/><path class="cls-3" d="M220.72,108.63a20.36,20.36,0,0,1-40.72,0s7.62-7.55,22.12-2.12S220.72,108.63,220.72,108.63Z" transform="translate(-160.94 -50)"/><rect class="cls-2" x="2.36" y="1.99" width="73.75" height="16.89"/><path class="cls-2" d="M237,50H163.3a2,2,0,0,0-2,2V68.87a2,2,0,0,0,1.88,2,.36.36,0,0,0,.14,0H237a2,2,0,0,0,1.68-.87,2,2,0,0,0,.34-1.12V52A2,2,0,0,0,237,50Zm-71.71,4H235V66.91h-69.7Z" transform="translate(-160.94 -50)"/><path class="cls-4" d="M218.31,55.4h-3.79a1.33,1.33,0,0,0-1.33,1.33v3.71a1.33,1.33,0,0,0,1.33,1.31h3.79a1.33,1.33,0,0,0,1.33-1.31V56.73A1.33,1.33,0,0,0,218.31,55.4ZM217,59.11h-1.11V58H217Z" transform="translate(-160.94 -50)"/><path class="cls-4" d="M225.56,55.4h-3.78a1.35,1.35,0,0,0-1.36,1.33v3.71a1.35,1.35,0,0,0,1.36,1.31h3.78a1.33,1.33,0,0,0,1.33-1.31V56.73A1.34,1.34,0,0,0,225.56,55.4Zm-1.36,3.71h-1.09V58h1.09Z" transform="translate(-160.94 -50)"/><path class="cls-4" d="M232.79,55.4H229a1.34,1.34,0,0,0-1.34,1.33v3.71A1.34,1.34,0,0,0,229,61.75h3.78a1.35,1.35,0,0,0,1.36-1.31V56.73A1.35,1.35,0,0,0,232.79,55.4Zm-1.34,3.71h-1.09V58h1.09Z" transform="translate(-160.94 -50)"/><path class="cls-4" d="M236.7,50H163a2,2,0,0,0-2,2v96a2,2,0,0,0,2,2H236.7a2,2,0,0,0,2-2V52A2,2,0,0,0,236.7,50Zm-2,96.05H165V54h69.7Z" transform="translate(-160.94 -50)"/><path class="cls-4" d="M200,77.69c-17.38,0-31.53,13.87-31.53,30.93s14.15,30.91,31.53,30.91,31.54-13.87,31.54-30.91S217.4,77.69,200,77.69Zm-27.5,30.93c0-14.88,12.34-27,27.5-27s27.51,12.08,27.51,27-12.34,27-27.51,27S172.51,123.48,172.51,108.62Z" transform="translate(-160.94 -50)"/><path class="cls-4" d="M222,104.73a22.42,22.42,0,0,0-44.37,3c0,.28,0,.57,0,.84a22.38,22.38,0,0,0,44.75,0A20.85,20.85,0,0,0,222,104.73Zm-3.9,6.71a15.43,15.43,0,0,1-.34,1.67c-.08.29-.16.58-.25.85-.19.57-.39,1.12-.62,1.65-.11.27-.24.53-.36.79l-.39.75a7.68,7.68,0,0,1-.47.78c-.31.5-.64,1-1,1.45-.18.23-.35.45-.55.67s-.37.44-.57.66a16.8,16.8,0,0,1-2.85,2.48,6.31,6.31,0,0,1-.66.44,7.34,7.34,0,0,1-.79.49c-.42.25-.87.48-1.31.69a17.83,17.83,0,0,1-3.53,1.25c-.22.06-.43.11-.65.15s-.65.13-1,.17-.5.08-.74.11-.24,0-.35,0c-.56,0-1.12.07-1.69.07s-1.11,0-1.65-.07a17.58,17.58,0,0,1-3.92-.78c-.25-.08-.49-.15-.73-.24s-.56-.2-.83-.32a17.75,17.75,0,0,1-3.55-2,7.9,7.9,0,0,1-.68-.5c-.23-.18-.45-.35-.65-.54s-.44-.36-.64-.56l-.61-.59c-.2-.2-.39-.42-.57-.63s-.38-.43-.55-.64a5.39,5.39,0,0,1-.51-.67,18.34,18.34,0,0,1-1.05-1.6c-.1-.19-.21-.37-.31-.55a12.45,12.45,0,0,1-.63-1.33,5.73,5.73,0,0,1-.33-.81,18,18,0,0,1-.75-2.56c-.06-.29-.11-.58-.15-.89a6.5,6.5,0,0,1-.13-.9c0-.32-.06-.64-.06-1a8.43,8.43,0,0,1,0-.87,11,11,0,0,1,.06-1.28,16,16,0,0,1,.39-2.7,18.38,18.38,0,0,1,36.16,2.71,10.7,10.7,0,0,1,.06,1.27,7.68,7.68,0,0,1,0,.83A13.16,13.16,0,0,1,218.12,111.44Z" transform="translate(-160.94 -50)"/><path class="cls-4" d="M222,104.73l-1.49,1.21L219.18,107a3,3,0,0,1-.89.32c-1.76.45-6.35.86-15.81-2.7s-16.41-1.9-20.35,0a16.75,16.75,0,0,0-1.91,1.07,14.07,14.07,0,0,0-2,1.52l-.57.55,0,0v.82a22.38,22.38,0,0,0,44.75,0l.1-4.26Zm-7.87,15.32c-.19.23-.37.44-.57.66a16.8,16.8,0,0,1-2.85,2.48c-.22.15-.44.31-.66.44a7.34,7.34,0,0,1-.79.49c-.42.25-.87.48-1.31.69a17.83,17.83,0,0,1-3.53,1.25c-.22.06-.43.11-.65.15s-.65.13-1,.17-.5.08-.74.11-.24,0-.35,0c-.56,0-1.12.07-1.69.07s-1.11,0-1.65-.07a17.58,17.58,0,0,1-3.92-.78c-.25-.08-.5-.15-.73-.24s-.56-.2-.83-.32a17.75,17.75,0,0,1-3.55-2l-.68-.5c-.23-.18-.45-.35-.65-.54s-.44-.36-.64-.56l-.61-.59c-.19-.2-.39-.42-.57-.63s-.38-.43-.55-.64-.34-.44-.51-.67a18.34,18.34,0,0,1-1.05-1.6c-.1-.19-.21-.37-.31-.55a12.45,12.45,0,0,1-.63-1.33,5.73,5.73,0,0,1-.33-.81,18,18,0,0,1-.75-2.56,8.26,8.26,0,0,1-.15-.89,6.5,6.5,0,0,1-.13-.9c0-.32-.06-.62-.08-.94a0,0,0,0,0,0,0c2-1.46,8.45-5.22,19.34-1.14,8.71,3.28,14,3.55,17.07,3.09h0a15.46,15.46,0,0,1-.35,1.67c-.07.29-.16.58-.25.85a13,13,0,0,1-.62,1.65,8,8,0,0,1-.36.79c-.13.26-.25.51-.39.75a7.68,7.68,0,0,1-.47.78,16.9,16.9,0,0,1-1,1.45C214.52,119.61,214.35,119.83,214.15,120.05Z" transform="translate(-160.94 -50)"/><path class="cls-4" d="M236.7,50H163a2,2,0,0,0-2,2V68.87a1.89,1.89,0,0,0,.34,1.1,2,2,0,0,0,1.68.87H236.7a1.27,1.27,0,0,0,.34,0,2,2,0,0,0,1.68-1.93V52A2,2,0,0,0,236.7,50Zm-2,16.89H165V54h69.7Z" transform="translate(-160.94 -50)"/><path class="cls-4" d="M218,55.4h-3.78a1.33,1.33,0,0,0-1.35,1.31v3.71a1.35,1.35,0,0,0,1.35,1.33H218a1.34,1.34,0,0,0,1.34-1.33V56.71A1.33,1.33,0,0,0,218,55.4Zm-2.44,3.71V58h1.09v1.08Z" transform="translate(-160.94 -50)"/><path class="cls-4" d="M225.2,55.4h-3.78a1.33,1.33,0,0,0-1.34,1.31v3.71a1.34,1.34,0,0,0,1.34,1.33h3.78a1.34,1.34,0,0,0,1.35-1.33V56.71A1.32,1.32,0,0,0,225.2,55.4Zm-2.43,3.71V58h1.09v1.08Z" transform="translate(-160.94 -50)"/><path class="cls-4" d="M232.45,55.4h-3.78a1.31,1.31,0,0,0-1.34,1.31v3.71a1.33,1.33,0,0,0,1.34,1.33h3.78a1.34,1.34,0,0,0,1.35-1.33V56.71A1.32,1.32,0,0,0,232.45,55.4ZM230,59.11V58h1.09v1.08Z" transform="translate(-160.94 -50)"/></g></svg>