<?xml version="1.0" encoding="utf-8"?>
<!-- Generator: Adobe Illustrator 23.0.2, SVG Export Plug-In . SVG Version: 6.00 Build 0)  -->
<svg version="1.1" id="logo" xmlns="http://www.w3.org/2000/svg" xmlns:xlink="http://www.w3.org/1999/xlink" x="0px" y="0px"
	 viewBox="0 0 750 1334" style="enable-background:new 0 0 750 1334;" xml:space="preserve">
<style type="text/css">
	.st0{fill:none;stroke:#9E9E9E;stroke-width:2;stroke-linecap:round;stroke-linejoin:round;}
</style>
<path id="icons" class="st0" d="M403.6,924.9v35h-52.4v-35 M336.8,915.1v44.8h14.4v-35 M403.6,924.9v35H418v-44.8 M336.8,959.9H418
	 M331.4,959.9h5.4v-31.4h-5.4c-2.8,0-5,2.2-5,5v21.4C326.4,957.7,328.6,959.9,331.4,959.9L331.4,959.9z M428.3,954.9v-21.4
	c0-2.8-2.2-5-5-5H418v31.4h5.4C426.1,959.9,428.3,957.7,428.3,954.9L428.3,954.9z M384.5,925.3h14.8c12.3,0,22.2-10,22.2-22.2v-17
	c0-0.9-0.7-1.6-1.6-1.6h-85.1c-0.9,0-1.6,0.7-1.6,1.6l0,0v17c0,12.3,10,22.2,22.2,22.2h13.2 M376.6,933.2c4.4,0,7.9-3.5,7.9-7.9
	s-3.5-7.9-7.9-7.9s-7.9,3.5-7.9,7.9S372.3,933.2,376.6,933.2L376.6,933.2z M418,964.6v-4.7h-81.2v4.7c0,4.4,3.6,7.9,7.9,7.9l0,0H410
	C414.4,972.6,418,969,418,964.6L418,964.6z M287.2,1132h-108c-2.8,0-5-2.2-5-5v-78c0-2.8,2.2-5,5-5h108c2.8,0,5,2.2,5,5v78
	C292.2,1129.8,290,1132,287.2,1132z M191.7,1117h55c1.1,0,2-0.9,2-2v-54c0-1.1-0.9-2-2-2h-55c-1.1,0-2,0.9-2,2v54
	C189.7,1116.1,190.6,1117,191.7,1117z M276.7,1073.1h-13.5 M276.7,1088h-13.5 M276.7,1102.9h-13.5 M329.1,1016.2H389
	c1.7,0,3,1.3,3,3l0,0v16.9l0,0h-65.9l0,0v-16.9C326.1,1017.6,327.4,1016.2,329.1,1016.2L329.1,1016.2z M395,1016.2h59.9
	c1.7,0,3,1.3,3,3l0,0v16.9l0,0H392l0,0v-16.9C392,1017.6,393.3,1016.2,395,1016.2L395,1016.2z M326.1,1023.7v-26.2c0-2.8,2.2-5,5-5
	H453c2.8,0,5,2.2,5,5v26.2c0-4.1-3.3-7.5-7.5-7.5l0,0h-51c-4.1,0-7.5,3.3-7.5,7.5l0,0c0-4.1-3.3-7.5-7.5-7.5l0,0h-51
	C329.5,1016.2,326.1,1019.5,326.1,1023.7C326.1,1023.6,326.1,1023.7,326.1,1023.7z M471.8,1068.5v12 M312.2,1068.5v12 M314.2,1036.1
	h155.6c1.1,0,2,0.9,2,2v30.3l0,0H312.2l0,0v-30.3C312.2,1037,313.1,1036.1,314.2,1036.1z M214.2,970.2h59.7c5.5,0,10,4.5,10,10v38.8
	c0,2.8-2.2,5-5,5h-69.7c-2.8,0-5-2.2-5-5v-38.8C204.2,974.7,208.7,970.2,214.2,970.2z M292.2,1003.1v-11.9c0-1.7-1.3-3-3-3h-5.3
	v17.9h5.3C290.9,1006.1,292.2,1004.7,292.2,1003.1z M262.4,959.4h-36.8c-2.2,0-4,1.8-4,4v6.8h44.8v-6.8
	C266.4,961.2,264.6,959.4,262.4,959.4z M218.7,1010.7h50.7 M293.4,1223.8l-51-19.1c-2.2-0.8-4.2-1.9-6.1-3.2l-10.9-7.8l19.5-27.2
	l58.3,42c1.7,1.2,2,3.5,0.8,5.2l0,0l-6.4,8.8C296.7,1223.8,295,1224.3,293.4,1223.8z M225.5,1193.6l19.5-27.1l-19.1-13.8
	c-1.7-1.2-4-0.8-5.2,0.8l0,0l-18.4,25.6c-1.2,1.7-0.8,4,0.8,5.2l0,0l11.9,8.5c1,0.7,2.3,1.1,3.5,1L225.5,1193.6z M217,1184l5.4-0.3
	l10.9-15.3l-8.6-6.2l-13,18.1L217,1184z M541.2,946.4v24c0,2.2-1.8,4-4,4h-33.9c-6.3,0-11.5-5.1-11.5-11.4v-8.7
	c0-6.6,5.3-11.9,11.9-11.9l0,0h33.5C539.4,942.5,541.2,944.2,541.2,946.4z M550.4,948.7h-9.2v19.5h9.2c1.1,0,2-0.9,2-2v-15.5
	C552.4,949.6,551.5,948.7,550.4,948.7L550.4,948.7L550.4,948.7z M579.8,958.5H562 M524.2,1000.5v-26h-16.8v26c0,3.4,2.7,6.1,6.1,6.1
	h4.5C521.4,1006.6,524.1,1003.9,524.2,1000.5C524.1,1000.5,524.1,1000.5,524.2,1000.5L524.2,1000.5z M560,952.2h-7.5v12.5h7.5
	c1.1,0,2-0.9,2-2v-8.5C562,953.1,561.1,952.2,560,952.2z M531,983.1v-8.6h-6.8v11.6h3.8C529.7,986.1,531,984.8,531,983.1z
	 M344.2,1151v-18.5c0-0.4,0.2-0.8,0.5-1.2l7.3-6.9 M378.1,1117.2l-8.2-7.7c-0.6-0.6-1.6-0.6-2.2,0l-8.1,7.7 M393.5,1151v-18.5
	c0-0.4-0.2-0.9-0.5-1.2l-7.3-6.9 M344.2,1166v20.9c0,0.9,0.7,1.6,1.6,1.6h46.1c0.9,0,1.6-0.7,1.6-1.6V1166 M360.5,1118l-17.5-17.5
	l-7.5,7.5l17.5,17.5c1.3,1.3,3.4,1.3,4.7,0l0,0l2.8-2.8C361.8,1121.4,361.8,1119.3,360.5,1118C360.5,1118,360.4,1118,360.5,1118
	L360.5,1118z M368.9,1140c3.4,0,6.1-2.7,6.1-6.1s-2.7-6.1-6.1-6.2c-3.4,0-6.1,2.7-6.1,6.1l0,0C362.7,1137.2,365.5,1140,368.9,1140
	L368.9,1140z M359.1,1124l5.5,5.5 M377.3,1149.7l17.5,17.5l7.5-7.5l-17.5-17.5c-1.3-1.3-3.4-1.3-4.7,0l0,0l-2.8,2.8
	c-1.3,1.3-1.4,3.3-0.1,4.7C377.2,1149.7,377.2,1149.7,377.3,1149.7L377.3,1149.7z M378.7,1143.6l-5.5-5.5 M384.7,1125.4l17.5-17.4
	l-7.5-7.5l-17.5,17.5c-1.3,1.3-1.3,3.4,0,4.7l0,0l2.8,2.8C381.3,1126.8,383.4,1126.8,384.7,1125.4
	C384.7,1125.5,384.7,1125.5,384.7,1125.4L384.7,1125.4z M378.7,1124l-5.5,5.5 M353,1142.3l-17.5,17.5l7.5,7.5l17.5-17.5
	c1.3-1.3,1.3-3.4,0-4.7l0,0l-2.8-2.8C356.4,1141,354.3,1141,353,1142.3L353,1142.3z M359.1,1143.7l5.5-5.5 M371.5,1165.2h-5.3
	c-2.5,0-4.5,2-4.5,4.5v18.8H376v-18.8C376,1167.2,374,1165.2,371.5,1165.2L371.5,1165.2L371.5,1165.2z M234.9,866.1v73.3h-19.5
	v-73.3c0-0.7,0.2-1.3,0.6-1.8l9.2-12.9l9.2,12.9C234.6,864.8,234.8,865.5,234.9,866.1z M264.6,864.3l-9.2-12.9l-9.2,12.9
	c-0.4,0.5-0.6,1.2-0.6,1.8v73.3h19.5v-73.3C265.2,865.5,265,864.8,264.6,864.3z M295,864.3l-9.2-12.9l-9.2,12.9
	c-0.4,0.5-0.6,1.2-0.6,1.8v73.3h19.5v-73.3C295.6,865.5,295.4,864.8,295,864.3L295,864.3z M245.7,877.6h-10.8v13.1h10.8V877.6z
	 M215.3,877.6h-9.8c-0.6,0-1,0.4-1,1v11.1c0,0.6,0.4,1,1,1h9.8V877.6z M295.6,890.7h9.8c0.6,0,1-0.4,1-1v-11.1c0-0.6-0.4-1-1-1h-9.8
	V890.7z M215.3,913.9h-9.8c-0.6,0-1,0.4-1,1V926c0,0.6,0.4,1,1,1h9.8V913.9z M295.6,927h9.8c0.6,0,1-0.4,1-1v-11.1c0-0.6-0.4-1-1-1
	h-9.8V927z M276,877.6h-10.8v13.1H276V877.6z M245.6,913.9h-10.8V927h10.8V913.9z M276,913.9h-10.8V927H276V913.9z M374.9,811v4.8
	h-8V811c0-0.6,0.4-1,1-1h6C374.4,810,374.9,810.4,374.9,811z M378.8,825.2l-1.3-8.5c-0.1-0.5-0.5-0.9-1-0.8h-11.1c-0.6,0-1,0.4-1,1
	v8.4h14.4V825.2z M364.4,847.1v10h19.2l-1.5-10H364.4z M348.4,825.2v-8.4c0-0.6-0.4-1-1-1h-11.1c-0.5,0-0.9,0.4-1,0.8l-1.3,8.5h14.4
	V825.2z M330.7,847.1l-1.5,10h19.2v-10H330.7z M330.7,847.1h51.4l-3.3-21.9h-44.7L330.7,847.1z M345,810h-6c-0.6,0-1,0.4-1,1v4.8h8
	V811C346,810.4,345.6,810,345,810z M356.4,840.8c2.5,0,4.6-2.1,4.6-4.6s-2.1-4.6-4.6-4.6s-4.6,2.1-4.6,4.6l0,0
	C351.8,838.8,353.9,840.8,356.4,840.8L356.4,840.8z M351,863.5V858c0-0.6-0.4-1-1-1h-22.6c-0.6,0-1,0.4-1,1v5.5c0,0.6,0.4,1,1,1H350
	C350.6,864.5,351,864.1,351,863.5z M386.4,863.5V858c0-0.6-0.4-1-1-1h-22.6c-0.6,0-1,0.4-1,1v5.5c0,0.6,0.4,1,1,1h22.6
	C386,864.5,386.4,864.1,386.4,863.5L386.4,863.5z M462.4,836.4c0-1.1,0.9-2,2-2h35.7c1.1,0,2,0.9,2,2v7.3h-39.7V836.4z M509.9,920.4
	l-2.4-7.4h-50.6l-2.4,7.4c-0.3,0.8,0.2,1.7,1,2c0.2,0.1,0.3,0.1,0.5,0.1h52.3c0.9,0,1.6-0.7,1.6-1.6
	C510,920.7,510,920.5,509.9,920.4z M456.9,859.3V913h50.6v-69.2h-57.6c-0.9,0-1.6,0.7-1.6,1.6c0,0.3,0.1,0.6,0.3,0.9L456.9,859.3z
	 M479.9,901.6h4.7c2.2,0,4-1.8,4-4v-34.9c0-2.2-1.8-4-4-4h-4.7c-2.2,0-4,1.8-4,4v34.9C475.9,899.8,477.7,901.6,479.9,901.6
	L479.9,901.6z M488.6,889.8h-12.7 M514.6,843.8h-7v61.1l12.6-7.1c1.5-0.8,2.4-2.4,2.4-4.2v-41.9C522.6,847.4,519,843.8,514.6,843.8
	L514.6,843.8L514.6,843.8z M565,1021.2L565,1021.2c6.4,2.2,11.6,6.8,14.7,12.8l0,0c0.3,0.7,0.1,1.5-0.6,1.9
	c-0.1,0.1-0.3,0.1-0.5,0.1l-8,0.9l-7.2-6.2l-0.2-8.1c0-0.8,0.6-1.4,1.4-1.4C564.7,1021.1,564.9,1021.1,565,1021.2z M517.7,1025.8
	h16.6c1.1,0,2-0.9,2-2v-6.9h-20.6v6.9C515.7,1024.9,516.6,1025.8,517.7,1025.8L517.7,1025.8z M506,1042.7l-3.1,25.3l-1.2,9.4
	c-0.2,1.5,0.9,2.9,2.4,3.1c0.1,0,0.2,0,0.3,0h43.1c1.5,0,2.8-1.2,2.7-2.8c0-0.1,0-0.2,0-0.3l-0.8-6.2l-1.6-12.1l-1.7-13.4l-1.2-10.1
	h-38.3L506,1042.7z M497.4,1035.6c-3,0-5.5,2.5-5.5,5.5v17.1c0,1.5,0.8,2.8,2,3.6l9,6.2l3.1-25.3l0.9-7.1L497.4,1035.6L497.4,1035.6
	z M546.4,1045.7l3.1,25.5l0,0l21-34.4l-7.2-6.2L546.4,1045.7L546.4,1045.7z M546.7,1035.6l-0.7-7.3c-0.1-1.4-1.3-2.5-2.7-2.5h-34.5
	c-1.4,0-2.6,1.1-2.7,2.5l-0.7,7.3H546.7z M510.2,1114.5v41.3c0,7.7-6.3,14-14,14h-60c-7.7,0-14-6.3-14-14v-41.3c0-7.7,6.3-14,14-14
	h60C503.9,1100.5,510.2,1106.8,510.2,1114.5z M452.2,1135.2v-8.5c0-0.6-0.4-1-1-1h-13.8c-0.6,0-1,0.4-1,1v8.5c0,0.6,0.4,1,1,1h13.8
	C451.8,1136.2,452.2,1135.7,452.2,1135.2L452.2,1135.2L452.2,1135.2z M452.2,1144.7h-3.7 M440.1,1144.7h-3.7 M435.9,1169.1v7.5
	 M496.5,1169.1v7.5 M479,1152.2c9.4,0,17-7.6,17-17s-7.6-17-17-17s-17,7.6-17,17l0,0C462,1144.6,469.6,1152.2,479,1152.2z
	 M474.5,1139.2l9-8.1 M441.8,1215.6l70.2-0.6l0,0l0.3,30.3c0,5.5-4.4,10-9.9,10.1l-50.2,0.4c-5.5,0-10-4.4-10.1-9.9L441.8,1215.6
	L441.8,1215.6z M441.8,1223.2l-9-5.3 M512,1222.6l8.8-5.4 M450.8,1204.5l54.6-0.5c4.3,0,7.8,3.4,7.8,7.7l0,0v2.9l0,0l-70.2,0.7l0,0
	v-2.9C443.1,1208,446.5,1204.5,450.8,1204.5L450.8,1204.5z M471.2,1196.7l10.9-0.1 M396.5,1262l8.1,26 M396.4,1290.6l16.5-5.1
	 M406,1250.1l-9.3-29.9l-24,7.5l9.3,29.9c1.4,4.5,6.1,7,10.6,5.6l7.8-2.4C404.9,1259.4,407.4,1254.6,406,1250.1z M396.7,1220.3
	l-24,7.5l5.3,17l26.8,1.5L396.7,1220.3z M333.1,1288l8.1-26 M341.3,1290.6l-16.5-5.1 M337.2,1260.8l7.8,2.4
	c4.5,1.4,9.2-1.1,10.6-5.6l9.3-29.9l-24-7.5l-9.3,29.9C330.3,1254.6,332.8,1259.4,337.2,1260.8L337.2,1260.8z M332.9,1246.2
	l26.8-1.5l5.3-17l-24-7.5L332.9,1246.2z M368.9,1215.7v-7.2 M375.1,1218.3l5.1-5.1 M362.6,1218.3l-5.1-5 M382.2,303l2.1,15
	c0.1,0.9-0.5,1.7-1.4,1.8c-0.1,0-0.2,0-0.2,0H359c-0.9,0-1.6-0.7-1.7-1.6c0-0.1,0-0.2,0-0.2l2.1-15L382.2,303L382.2,303z M421.1,299
	v-62.7c0-2.2-1.8-4-4-4h-92.4c-2.2,0-4,1.8-4,4V299c0,2.2,1.8,4,4,4h92.4C419.3,303,421.1,301.2,421.1,299z M421.1,299v-12.6H320.6
	V299c0,2.2,1.8,4,4,4H417C419.3,303,421.1,301.2,421.1,299z M370.8,297.5c1.6-0.1,2.8-1.4,2.7-2.9c-0.1-1.6-1.4-2.8-2.9-2.7
	c-1.5,0.1-2.7,1.3-2.7,2.8C367.9,296.3,369.3,297.5,370.8,297.5L370.8,297.5z M401.5,65.6h8.1c2.7,0,4.9,2.3,4.9,5v29.2
	c0,2.7-2.2,5-4.9,5h-46.2c-2.7,0-4.9-2.3-4.9-5V70.7c0-2.7,2.2-5,4.9-5h8.1c1.8,0,3.4-0.9,4.2-2.5l1.1-1.9c0.9-1.5,2.5-2.5,4.2-2.5
	h11c1.8,0,3.4,1,4.2,2.5l1.1,1.9C398.2,64.7,399.8,65.6,401.5,65.6z M386.6,97.7c7.5,0.2,13.7-5.8,13.8-13.3
	c0.2-7.5-5.8-13.7-13.3-13.8c-7.5-0.2-13.7,5.8-13.8,13.3c0,0.1,0,0.2,0,0.3C373.2,91.6,379.2,97.7,386.6,97.7L386.6,97.7z
	 M386.6,92c4.3,0.1,7.8-3.3,7.9-7.6s-3.3-7.8-7.6-7.9s-7.8,3.3-7.9,7.6c0,0.1,0,0.1,0,0.2C378.9,88.4,382.3,91.9,386.6,92L386.6,92
	L386.6,92z M391.1,516L391.1,516c-5.6,0-11.1-2-15.4-5.6c-5.5-4.6-8.6-11.4-8.6-18.5l0,0c0-7.1,3.1-13.8,8.5-18.4
	c4.3-3.7,9.8-5.7,15.5-5.7l0,0c5.7,0,11.1,2,15.5,5.7c5.4,4.6,8.5,11.3,8.5,18.4l0,0c0,7.1-3.2,13.9-8.6,18.5
	C402.1,514,396.7,516,391.1,516z M375.7,510.4l4.6,16.6c0.5,1.8,2.1,3,4,3h13.6c1.9,0,3.5-1.2,4-3l4.6-16.6
	c-4.3,3.6-9.8,5.6-15.4,5.6l0,0C385.5,516,380,514,375.7,510.4z M391.1,481v10.9h9.1 M375.6,473.5c4.3-3.7,9.8-5.7,15.5-5.7l0,0
	c5.7,0,11.1,2,15.5,5.7l-0.1,0.1l-4.6-16.7c-0.5-1.8-2.1-3-4-3h-13.6c-1.9,0-3.5,1.2-4,3L375.6,473.5L375.6,473.5z M459,139.1
	c-7.8-0.2-14-6.7-13.8-14.5s6.7-14,14.5-13.8c7.7,0.2,13.8,6.4,13.8,14.1C473.4,132.9,466.9,139.2,459,139.1z M465.2,125
	c0.1-3.5-2.6-6.3-6.1-6.4s-6.3,2.6-6.4,6.1s2.6,6.3,6.1,6.4c0.1,0,0.1,0,0.2,0C462.4,131.1,465.2,128.4,465.2,125L465.2,125z
	 M520.4,131.2V72.4c-0.1-5.1-4.3-9.2-9.4-9.2l0,0l0,0c-5.1-0.1-9.3,4-9.4,9.2l0,0v26.7c0,3-2,5.7-4.9,6.6l-5.5,1.7 M534.5,137.2v-4
	c0-1.1-0.9-2-2-2h-24.1c-1.1,0-2,0.9-2,2v4c0,1.1,0.9,2,2,2h24.1C533.6,139.2,534.5,138.3,534.5,137.2z M469.8,134.4H484
	c3.4,0.1,6.4-2.3,7-5.7c0.7-3.7,1-7.5,1-11.3c0-10.6-2.6-21.1-7.7-30.5C477.6,74.6,464.7,67,450.7,67l0,0c-2.3,0-4.2,1.8-4.2,4.1
	l0,0v46.6l0,0 M415.4,203v9.3 M326.2,203v9.3 M323.9,202.6h93.9c2.7,0,4.9-2.6,4.9-5.8v-40.3c0.2-1.9-1.3-3.7-3.2-3.8h-8
	c-1.9,0.2-3.4,1.9-3.2,3.8v27c0.1,1-0.6,1.8-1.6,1.9h-71.5c-1-0.1-1.7-0.9-1.6-1.9v-27c0.2-1.9-1.3-3.7-3.2-3.8h-8
	c-1.8,0-3.2,1.7-3.2,3.8v40.3C319,200.1,321.2,202.6,323.9,202.6z M335.1,185.5h71.5c1-0.1,1.7-0.9,1.6-1.9v-27
	c-0.2-1.9,1.3-3.7,3.2-3.8h4v-16.4c0-6.4-4.4-11.5-9.7-11.5H336c-5.4,0-9.7,5.2-9.7,11.5v16.5h4c1.9,0.2,3.4,1.9,3.2,3.8v27
	C333.4,184.6,334.2,185.4,335.1,185.5L335.1,185.5L335.1,185.5z M408.2,169.5h-74.7v14.9c0,0.6,0.4,1,1,1h72.7c0.6,0,1-0.4,1-1
	V169.5z M388.5,425.5h-32.3c-0.6,0-1-0.4-1-1v-84.8h33.3V425.5z M361.7,425.5v8.2 M415.4,433.8v-8.2 M349.5,339.8h78 M378.4,383.5
	v-7 M388.5,425.5h32.3c0.6,0,1-0.4,1-1v-84.8h-33.3V425.5z M398.7,383.5v-7 M228.3,186.4h63.4v28.4h-63.4V186.4z M228.3,214.7h63.4
	v28.4h-63.4V214.7z M290.7,271.5h-61.4c-0.6,0-1-0.4-1-1v-27.4l0,0h63.4l0,0v27.4C291.7,271,291.2,271.5,290.7,271.5z M285.2,271.4
	v11 M234.8,271.4v11 M221,186.4h78 M260,252.8c1.8,0,3.2,2,3.2,4.5c0,2.5-1.4,4.5-3.2,4.5s-3.2-2-3.2-4.5
	C256.8,254.8,258.2,252.8,260,252.8z M260,224.6c1.7,0,3.1,1.9,3.1,4.3s-1.4,4.3-3.1,4.3s-3.1-1.9-3.1-4.3S258.3,224.6,260,224.6z
	 M260,196.2c1.7,0,3.1,1.9,3.1,4.3s-1.4,4.3-3.1,4.3s-3.1-1.9-3.1-4.3S258.3,196.2,260,196.2z M520.7,169.7v82c0,1.7-1.3,3-3,3h-72
	c-1.7,0-3-1.3-3-3v-82c0-1.7,1.3-3,3-3h72C519.3,166.7,520.7,168,520.7,169.7z M517.7,166.7h-72c-1.7,0-3,1.3-3,3v23.9h78v-23.9
	C520.7,168,519.3,166.7,517.7,166.7z M481.7,245.4c11.7-0.2,21-9.9,20.8-21.7c-0.2-11.7-9.9-21-21.7-20.8
	c-11.6,0.2-20.8,9.7-20.8,21.2C460.1,236,469.8,245.5,481.7,245.4z M476.7,180.1h-23.2 M509,183.5c1.9,0,3.3-1.6,3.3-3.5
	s-1.6-3.3-3.5-3.3c-1.8,0-3.3,1.5-3.3,3.4C505.6,182,507.1,183.5,509,183.5L509,183.5z M499.2,183.5c1.9,0,3.3-1.6,3.3-3.5
	s-1.6-3.3-3.5-3.3c-1.8,0-3.3,1.5-3.3,3.4C495.8,182,497.3,183.5,499.2,183.5L499.2,183.5z M489.5,183.5c1.9,0,3.3-1.6,3.3-3.5
	s-1.6-3.3-3.5-3.3c-1.8,0-3.3,1.5-3.3,3.4C486.1,182,487.6,183.5,489.5,183.5L489.5,183.5z M503.4,224.1h-11.7 M329.5,344.2h-26.9
	 M277.4,344.2h-57.9 M241.8,330.4V326 M255.5,326v4.4 M248.7,326v4.4 M302.7,394.4l-2-7.4 M277.5,354.3h-50.9v6.6
	c0,14.7,12.3,26.6,27.4,26.6h41.2c15.1,0,27.4-11.9,27.4-26.6v-6.6h-19.9 M255.5,318.3h-13.7 M248.7,317.7v-4.5
	c-0.1-6-5-10.8-11.1-10.8l0,0l0,0c-6-0.1-11,4.7-11.1,10.8v31.1 M246.4,394.4l2-7.4 M277.4,344.2h-50.8v10h50.9L277.4,344.2z
	 M302.6,354.2h19.9v-10h-19.9V354.2z M277.4,365.9h25.2v-25.8h-25.2V365.9L277.4,365.9z M277.4,365.9h25.2v-25.8h-25.2V365.9
	L277.4,365.9z M519.5,518.1h-66c-3.3,0-6-2.7-6-6v-128c0-3.3,2.7-6,6-6h66c3.3,0,6,2.7,6,6v128C525.5,515.4,522.9,518.1,519.5,518.1
	z M525.5,431.7h-78 M466,417.1v-12 M466,446.2v17 M450.3,355.1v-29.2h9.9v29.2c0,1.7-1.3,3-3,3h-3.9
	C451.6,358.1,450.3,356.7,450.3,355.1z M460.2,272.3c0-0.9-0.8-1.6-1.7-1.6c-0.2,0-0.4,0-0.6,0.1c-6.7,2.6-16.9,8.6-16.9,32.1v19.7
	c0,1.8,1.5,3.2,3.3,3.2h15.9L460.2,272.3L460.2,272.3z M505.4,358.1h3.9c1.7,0,3-1.3,3-3v-29.2h-9.9v29.2
	C502.4,356.7,503.8,358.1,505.4,358.1z M484.2,272.6v51.3c0,1.1,0.9,2,2,2h26.1v-47.3c0-4.4-3.6-8-8-8h-18.1
	C485.1,270.6,484.2,271.5,484.2,272.6z M494.3,277.3c-1.7,0.1-3.1,1.6-3,3.3c0.1,1.7,1.6,3.1,3.3,3c1.7-0.1,3-1.5,3-3.2
	C497.6,278.6,496.1,277.2,494.3,277.3L494.3,277.3z M329.5,420.4v75.5c0,3.3-2.7,6-6,6h-59.3c-3.3,0-6-2.7-6-6v-75.5
	c0-3.3,2.7-6,6-6h59.3C326.9,414.4,329.5,417,329.5,420.4z M310.5,473.1c0-9.6-7.8-17.5-17.4-17.5s-17.5,7.8-17.5,17.4
	s7.8,17.5,17.4,17.5c0,0,0,0,0.1,0C302.7,490.5,310.5,482.7,310.5,473.1C310.6,473.1,310.6,473.1,310.5,473.1L310.5,473.1z
	 M302.5,435.1c0-5.2-4.2-9.5-9.4-9.5c-5.2,0-9.5,4.2-9.5,9.4c0,5.2,4.2,9.5,9.4,9.5l0,0C298.3,444.5,302.5,440.3,302.5,435.1
	L302.5,435.1z M293.1,480.4c4.1,0,7.4-3.3,7.3-7.4c0-4.1-3.3-7.4-7.4-7.3c-4.1,0-7.3,3.3-7.3,7.4C285.7,477.1,289,480.4,293.1,480.4
	L293.1,480.4L293.1,480.4z M304.4,87.7v58c0,2.8-2.2,5-5,5h-46c-2.8,0-5-2.2-5-5v-58c0-2.8,2.2-5,5-5h46
	C302.2,82.7,304.4,84.9,304.4,87.7L304.4,87.7z M248.4,87.7v58c0,2.8,2.2,5,5,5h7.1v-68h-7.1C250.7,82.7,248.4,84.9,248.4,87.7
	L248.4,87.7L248.4,87.7z M293.9,108.1V97.9c0-0.6-0.4-1-1-1H272c-0.6,0-1,0.4-1,1v10.3c0,0.6,0.4,1,1,1h20.9
	C293.5,109.1,293.9,108.7,293.9,108.1L293.9,108.1z"/>
<path id="my-stuff" d="M330,710.8c9-36,10.5-40.1,10.7-43.7c0-2.2-2.2-3.6-4.3-3.6c-6.2,0-16.7,36.7-27.4,36.7
	c-5.4,0,6.2-26.6,7.9-30c1.3-2.2,2.8-5.1-1.5-5.1c-7.5,0-15.8,25.5-16.3,30.9c-0.9,8.6,3.7,11.2,9.6,11.2c6.8,0,11.4-4.7,15.4-9.6
	l-3.6,12.8c-19.9,2.1-38.6,27-38.6,45.9c0,8.4,4.7,13.5,13.1,13.5c11.4,0,20.1-15.8,23.6-24.4c3.4-8.2,8.1-21.4,9.6-27
	c3.4,0.9,6.6,2.2,9.6,3.9c3.2,1.9,6-4.9,3-7.3C337.6,712.7,333.9,711.2,330,710.8 M294.6,761.5c-10.9,0,2.8-39.2,24.2-42.9
	C316.7,723.7,304.3,761.5,294.6,761.5 M303.4,623c-5.8,32-16.1,63.5-30.8,105.3c-1.5,4.3-2.6,10.5-8.4,10.5c-3,0-6-2.8-5.8-5.4
	c1.7-2.2,25.1-76.5,28.5-88.8c1.9-6.9,17.6-65.4,2.1-65.4c-6.2,0-12.6,6.4-16.3,10.5c-21.4,23.1-35.2,55.5-45.2,85.3
	c-1.3,3.6-1.5,9.9-7.3,9.9c-2.7,0.1-5-2-5.1-4.7c0-0.1,0-0.1,0-0.2c0-2.2,1.1-5.1,1.7-6.9c3.4-11.2,7.1-24.7,7.1-37.3
	c0-3.8-0.8-9.4-3.9-9.4c-16.9,0-38.6,46.7-41.1,77.4c-0.4,5.4-5.4,6-7.1,6c-5.1,0-6.8-3.8-6.8-7.1c0-4.1,2.1-8.1,3.2-12.6
	c6.9-28.3,19.1-54.7,27-83.2c1.1-5.4,1.3-12.2,7.3-12.2c2.6,0,5.4,1.5,5.4,4.9c-0.2,2-0.5,4-0.9,6c-1.7,8.2-3.9,16.3-6.4,24.4
	c5.1-5.6,12-11.2,20.2-11.2c7.7,0,11.4,6.9,12.2,14c7.9-16.1,16.7-31.9,28.3-45.7c6.8-7.9,16.5-17.1,27.6-17.1
	c4.9,0,10.5,1.7,12.9,6.4C308.3,588.5,306,609.1,303.4,623 M587.4,602.6c1.5-3.2,3.6-9.7-2.2-9.7c-7.3,0-15,20.8-18.7,28.7
	c-9.9,12.7-20.4,26.6-33.8,36.2c4.9-15.4,10.1-31.5,18-45.4c0.9-1.7,2.6-3.6,2.6-5.8c0-1.9-1.7-2.8-3.4-2.8
	c-8.2,0-25.5,53.4-27.8,59.6c-2.1,0.7-5.8,1.3-5.8,4.1c0,2.1,2.6,3.6,2.6,4.5c0,1.3-1,4.3-2.4,8.4c-0.3-0.3-0.8-0.3-1.2,0
	c-6.6,6.2-20.6,20.4-28.7,20.4c-6.4,0-1.1-15.7,3.6-23c1.3-1.9,2.8-4.5,1.3-6.6c-1.4-1.5-3.4-2.1-5.4-1.7c-2.8,0.8-4.9,6.4-6.4,8.2
	c-3.8,5.1-10.5,19.7-18.9,19.7c-5.6,0,3.4-17.2,6-22.7c0.9-2.1,1.7-3.6-2.1-4.3c-1.7-0.4-3.2,0.4-4.5,1.9
	c-5.1,5.4-11.6,21.6-8.8,28.1c1.9,3.9,6.4,4.5,10.5,3.6c5.2-1.1,9.4-4.9,12.9-8.4c-0.8,5.2,0.9,12.2,9.6,12.2c9,0,20.5-8,28.5-17.7
	c-5.2,14.1-11.9,32.8-11.9,44.5c0,5.4,2.2,11.4,8.8,11.4c16.3,0,22.1-48,22.1-60.2c0-5.4,0.2-11.8-2.6-16.7
	c10.9-8.1,21.9-16.9,28.9-27.4l-6.8,20.1c-2.8,0.4-15.6,0.4-15.6,5.6c0,0.8,6.6,8.2,10.7,10.7c-3.7,11.3-34.7,85.4-13.7,85.4
	c18.4,0,26.2-52.3,25.7-69.3c-0.2-5.2-0.6-10.7-2.2-15.9c0.9-3.2,1.7-6.9,2.8-9.9c7.3-0.2,12.2-0.4,18.2-0.4c4.3,0,6.9-6.7,2.8-6.7
	c-6.6,0-13.3,0.6-18.9,0.6c2.8-9.8,10.3-33.7,15.8-41.6C580.8,614.4,584.6,608.8,587.4,602.6 M510.7,737c-5.2,0,9.6-41.8,14.2-55.9
	C526.3,691.6,520.3,737,510.7,737 M535.3,752c1.1-15.7,11.6-42.4,16.5-57.3C551.6,715.3,543.3,746.8,535.3,752 M429.9,725.5
	c-0.6,1.3,0,0.9,0.8,1.9c0.3,0.6,0.4,1.4,0.2,2.1c-1.3,3.2-3.2,5.4-6.6,6c-1.8,0.3-3.6-0.2-4.9-1.5c-1.3-1.5-0.8-3.4-0.4-5.1
	c0.9-3.8,2.1-7.5,3.2-11.2l7.3-24.7c4.9-16.5,9.9-33,15-49.3c-7.7,0-15.8-0.4-23.6-0.4c-1.9,0-3.8,0.2-5.2-1.1
	c-1.3-1.3-1.3-3.3-0.1-4.6c0,0,0,0,0.1-0.1c1.5-1.1,3.4-1.1,5.2-1.1c24.4,0,25.9,0.2,25.9,0.2l6.2-18c1.1-3.2,2.8-8.2,7.5-5.6
	c1.9,1.1,1.9,2.6,1.3,4.5l-5.8,19.1c9.9,0.2,27,0,31.3,0c7.5,0,10.5,7.1,0,7.1c-2.6,0-26.1,0.4-33.7,0.2
	c-4.3,16.5-10.1,33.7-14.8,50.2L429.9,725.5z M420.7,697.5c0,16.5-26.6,36.4-46.9,36.4c-4.1,0-15-1.1-14.6-6.2
	c0.2-2.2,2.6-3.6,4.9-3.6c2.1,0,4.1,0.9,6.4,0.9c10.9,0,38.6-12.5,38.6-27.9c0-9.6-11.2-15.2-18.7-18.9
	c-15.4-7.7-40.5-14.8-40.5-36.9c0-25.9,32.4-64.7,64.7-64.7c8.8,0,17.2,3,21.2,11.2c1.6,3.2,2.4,6.7,2.3,10.3c0,6.9-1.5,21-7.9,21
	c-2.4,0-5.6-1.1-4.5-4.7c1.7-5.4,3-10.5,3-16.3c0-9.9-6-13.7-14.4-13.7c-20.6,0-53.4,31.3-53.4,56.4
	C360.8,667.3,420.8,666,420.7,697.5"/>
</svg>
