<svg id="logo" xmlns="http://www.w3.org/2000/svg" viewBox="0 0 424 200"><title>logo</title><path id="object" d="M165,140.77c9-36,10.5-40.11,10.69-43.68,0-2.24-2.25-3.56-4.32-3.56-6.18,0-16.68,36.74-27.37,36.74-5.43,0,6.19-26.62,7.88-30,1.31-2.25,2.81-5.06-1.5-5.06-7.5,0-15.75,25.49-16.31,30.93-.94,8.62,3.75,11.25,9.56,11.25,6.75,0,11.43-4.69,15.37-9.57l-3.56,12.75c-19.87,2.06-38.62,27-38.62,45.92,0,8.44,4.68,13.5,13.12,13.5,11.44,0,20.06-15.74,23.62-24.37,3.38-8.24,8.06-21.37,9.56-27a37.86,37.86,0,0,1,9.57,3.94c3.18,1.87,6-4.88,3-7.31A20.16,20.16,0,0,0,165,140.77Zm-35.43,50.79c-10.88,0,2.81-39.17,24.18-42.92C151.67,153.7,139.29,191.56,129.55,191.56Zm8.81-138.51c-5.81,32.05-16.13,63.54-30.75,105.34-1.5,4.31-2.62,10.5-8.44,10.5-3,0-6-2.82-5.81-5.44,1.69-2.25,25.12-76.48,28.5-88.85,1.87-6.93,17.62-65.42,2.06-65.42-6.18,0-12.56,6.38-16.31,10.5C86.24,42.74,72.37,75.16,62.43,105c-1.31,3.56-1.5,9.93-7.31,9.93A4.87,4.87,0,0,1,50.06,110c0-2.25,1.12-5.06,1.68-6.94,3.38-11.24,7.13-24.74,7.13-37.3,0-3.75-.75-9.37-3.94-9.37-16.87,0-38.62,46.67-41.06,77.41-.37,5.44-5.43,6-7.12,6-5.06,0-6.75-3.75-6.75-7.12,0-4.13,2.06-8.06,3.19-12.56,6.93-28.3,19.12-54.73,27-83.22,1.13-5.44,1.32-12.19,7.32-12.19,2.62,0,5.43,1.5,5.43,4.88a44.5,44.5,0,0,1-.94,6C40.31,43.86,38.06,51.92,35.62,60c5.06-5.62,12-11.25,20.25-11.25,7.68,0,11.43,6.94,12.18,14.06,7.88-16.12,16.69-31.86,28.31-45.73C103.11,9.18,112.86,0,123.92,0c4.88,0,10.5,1.69,12.94,6.37C143.23,18.56,141,39.18,138.36,53.05Zm284-20.44c1.5-3.18,3.56-9.74-2.25-9.74-7.31,0-15,20.8-18.74,28.68C391.45,64.29,381,78.16,367.64,87.72c4.87-15.37,10.12-31.49,18-45.36.93-1.69,2.62-3.56,2.62-5.81,0-1.87-1.69-2.81-3.37-2.81-8.25,0-25.5,53.42-27.75,59.61-2.06.75-5.81,1.31-5.81,4.12,0,2.06,2.62,3.56,2.62,4.5,0,1.29-.95,4.31-2.4,8.4a.89.89,0,0,0-1.16,0c-6.56,6.19-20.62,20.43-28.68,20.43-6.38,0-1.13-15.74,3.56-23.05,1.31-1.88,2.81-4.5,1.31-6.56a5.89,5.89,0,0,0-5.43-1.69c-2.82.75-4.88,6.37-6.38,8.25-3.75,5.06-10.5,19.68-18.93,19.68-5.63,0,3.37-17.24,6-22.68.93-2.06,1.68-3.56-2.07-4.31-1.68-.38-3.18.37-4.5,1.87-5.06,5.44-11.62,21.56-8.81,28.12,1.88,3.94,6.38,4.5,10.5,3.56,5.25-1.12,9.37-4.87,12.94-8.43-.75,5.24.93,12.18,9.56,12.18,9,0,20.51-8,28.55-17.73-5.18,14.06-11.87,32.81-11.87,44.53,0,5.44,2.25,11.44,8.81,11.44,16.32,0,22.13-48,22.13-60.17,0-5.44.18-11.81-2.63-16.68,10.88-8.06,21.94-16.87,28.87-27.37l-6.75,20.06c-2.81.37-15.56.37-15.56,5.62,0,.75,6.57,8.25,10.69,10.68C378,119.4,347,193.44,368,193.44c18.38,0,26.25-52.3,25.69-69.35-.19-5.25-.56-10.69-2.25-15.94.94-3.18,1.69-6.93,2.81-9.93,7.31-.19,12.19-.38,18.19-.38,4.31,0,6.93-6.74,2.81-6.74-6.56,0-13.31.56-18.94.56,2.82-9.75,10.32-33.74,15.75-41.61C415.82,44.42,419.57,38.8,422.38,32.61ZM345.7,167c-5.24,0,9.57-41.8,14.25-55.86C361.27,121.65,355.27,167,345.7,167Zm24.56,15c1.13-15.75,11.63-42.37,16.5-57.36C386.57,145.27,378.33,176.76,370.26,182ZM264.9,155c-.56,1.32,0,.94.75,1.88a2.68,2.68,0,0,1,.19,2.06c-1.31,3.19-3.19,5.44-6.56,6a5.53,5.53,0,0,1-4.87-1.5c-1.32-1.5-.75-3.38-.38-5.06.94-3.75,2.06-7.5,3.19-11.25l7.31-24.74c4.87-16.5,9.93-33,15-49.3-7.69,0-15.75-.37-23.63-.37-1.87,0-3.74.18-5.24-1.13a3.26,3.26,0,0,1,0-4.68c1.5-1.13,3.37-1.13,5.24-1.13,24.38,0,25.88.19,25.88.19L288,48c1.13-3.18,2.82-8.24,7.5-5.62,1.88,1.13,1.88,2.63,1.31,4.5L291,66c9.94.19,27,0,31.31,0,7.5,0,10.5,7.12,0,7.12-2.62,0-26.06.38-33.74.19-4.32,16.49-10.13,33.74-14.81,50.23Zm-9.18-27.55c0,16.49-26.62,36.36-46.87,36.36-4.13,0-15-1.12-14.62-6.18.18-2.25,2.62-3.56,4.87-3.56,2.06,0,4.12.93,6.37.93,10.88,0,38.62-12.55,38.62-27.92,0-9.56-11.24-15.19-18.74-18.94-15.38-7.68-40.5-14.8-40.5-36.92,0-25.87,32.43-64.67,64.68-64.67,8.81,0,17.25,3,21.19,11.25A21.85,21.85,0,0,1,273,28.12c0,6.93-1.5,21-7.88,21-2.44,0-5.62-1.13-4.5-4.69,1.69-5.43,3-10.49,3-16.3,0-9.94-6-13.69-14.43-13.69-20.63,0-53.43,31.31-53.43,56.42C195.73,97.28,255.72,96,255.72,127.46Z"/></svg>